<?xml version="1.0" encoding="UTF-8"?>
<svg width="1200pt" height="1200pt" version="1.1" viewBox="0 0 1200 1200" xmlns="http://www.w3.org/2000/svg">
 <path d="m237.29 897.73c81.754 135.6 235.88 227.27 412.72 227.27 262.55 0 475-202.05 475-450 0-78.926-21.523-153.2-59.324-217.75-44.977-217.48-247.4-382.25-490.68-382.25-276.35 0-500 212.62-500 473.6 0 138 62.523 262.45 162.27 349.12zm832.9-283.15c-33.898 229.9-242.53 407.65-495.18 407.65-68.199 0-133.2-12.953-192.38-36.375 73.102 55.75 166.18 89.148 267.38 89.148 234.18 0 425-178.82 425-400 0-20.551-1.6484-40.727-4.8242-60.426zm-645.18-214.57h-75c-26.523 0-51.949 10.523-70.699 29.301-18.773 18.75-29.301 44.176-29.301 70.699v100c0 55.227 44.777 100 100 100h200c55.227 0 100-44.773 100-100v-50c0-13.801-11.199-25-25-25-13.797 0-25 11.199-25 25v50c0 27.625-22.375 50-50 50h-200c-27.625 0-50-22.375-50-50v-100c0-13.25 5.2773-25.977 14.652-35.352s22.098-14.648 35.348-14.648h75c13.801 0 25-11.199 25-25s-11.199-25-25-25zm300 300h75c26.527 0 51.953-10.523 70.703-29.301 18.777-18.75 29.297-44.176 29.297-70.699v-100c0-55.227-44.773-100-100-100h-200c-55.223 0-100 44.773-100 100v50c0 13.801 11.203 25 25 25 13.801 0 25-11.199 25-25v-50c0-27.625 22.375-50 50-50h200c27.625 0 50 22.375 50 50v100c0 13.25-5.2734 25.977-14.648 35.352s-22.102 14.648-35.352 14.648h-75c-13.797 0-25 11.199-25 25s11.203 25 25 25z" fill-rule="evenodd"/>
</svg>
